<svg xmlns="http://www.w3.org/2000/svg" viewBox="0 0 41 61"><defs><style>.cls-1{fill:#fff;stroke-linejoin:round;}.cls-1,.cls-4{stroke:#000;}.cls-2,.cls-3{isolation:isolate;}.cls-3{font-size:28px;font-family:Verdana-Bold, Verdana;font-weight:700;}.cls-4{stroke-width:0.06px;}</style></defs><title>2s</title><g id="Layer_2" data-name="Layer 2"><g id="svg2"><g id="layer1"><g id="g7615"><path id="rect3050-0-50" class="cls-1" d="M10.5.5h20c5.52,0,10,5.37,10,12v36c0,6.63-4.48,12-10,12h-20C5,60.5.5,55.13.5,48.5v-36C.5,5.87,5,.5,10.5.5Z"/><g id="text2989-8" class="cls-2"><text class="cls-3" transform="translate(10.5 25.55)">2</text></g><path id="path2076-5" class="cls-4" d="M13,38.22c-9,9.25-.17,16,7,11.55-1.35,4.81-2.09,5.19-2.91,6.46h7.71c-1-1.28-2-1.65-3.09-6.44,7.29,4.2,15-3.12,6.89-11.57a36.28,36.28,0,0,1-7.78-9.47A50.08,50.08,0,0,1,13,38.22Z"/></g></g></g></g></svg>