<svg xmlns="http://www.w3.org/2000/svg" viewBox="0 0 41 61"><defs><style>.cls-1{fill:#fff;stroke:#000;stroke-linejoin:round;}.cls-2,.cls-4{fill:#59813b;}.cls-3,.cls-4{isolation:isolate;}.cls-4{font-size:28px;font-family:Verdana-Bold, Verdana;font-weight:700;}</style></defs><title>7c</title><g id="Layer_2" data-name="Layer 2"><g id="svg2"><g id="layer1"><g id="g7469"><path id="rect3050-0-52" class="cls-1" d="M10.5.5h20c5.52,0,10,5.37,10,12v36c0,6.63-4.48,12-10,12h-20C5,60.5.5,55.13.5,48.5v-36C.5,5.87,5,.5,10.5.5Z"/><path id="rect3667-8-7" class="cls-2" d="M18.47,40.57c-4.29-2.11-10.59.41-9.1,6.09s7.73,4.32,9.91,1c-.91,6.4-2.5,7.39-3.45,8.78H26c-1-1.49-2.89-2.38-4-8.86,2.19,3.36,8.76,4.53,10.2-.93s-5-8.43-9.17-6c4.05-2.8,5.5-12-2.17-12s-6.46,9.4-2.36,12Z"/><g id="text3009" class="cls-3"><text class="cls-4" transform="translate(11.01 25.55)">7</text></g></g></g></g></g></svg>