<svg xmlns="http://www.w3.org/2000/svg" viewBox="0 0 41 61"><defs><style>.cls-1{fill:#fff;stroke:#000;stroke-linejoin:round;}.cls-2,.cls-3{isolation:isolate;}.cls-3{font-size:28px;font-family:Verdana-Bold, Verdana;font-weight:700;}.cls-3,.cls-4{fill:#be3d36;}</style></defs><title>7h</title><g id="Layer_2" data-name="Layer 2"><g id="svg2"><g id="layer1"><g id="g7747"><path id="rect3050-0-52-8" class="cls-1" d="M10.5.5h20c5.52,0,10,5.37,10,12v36c0,6.63-4.48,12-10,12h-20C5,60.5.5,55.13.5,48.5v-36C.5,5.87,5,.5,10.5.5Z"/><g id="text3009-0" class="cls-2"><text class="cls-3" transform="translate(11.01 25.55)">7</text></g><path id="path30-8" class="cls-4" d="M20.4,56c-1.65-5.74-6.12-10-9.78-14.61C8.7,39,6.88,36.05,7.69,33c.94-3.25,4.88-5.06,8.1-4a7.58,7.58,0,0,1,4.72,4.37A10.41,10.41,0,0,1,23,30.18a6.94,6.94,0,0,1,9.57.95c1.6,2,1.26,4.84.18,7-1.78,3.76-5,6.54-7.51,9.84a24.57,24.57,0,0,0-4.41,7.89c-.06.14-.29.24-.4.08Z"/></g></g></g></g></svg>