<svg xmlns="http://www.w3.org/2000/svg" viewBox="0 0 41 61"><defs><style>.cls-1{fill:#fff;stroke:#000;stroke-linejoin:round;}.cls-2,.cls-3{isolation:isolate;}.cls-3{font-size:28px;font-family:Verdana-Bold, Verdana;font-weight:700;}.cls-3,.cls-4{fill:#be3d36;}</style></defs><title>8h</title><g id="Layer_2" data-name="Layer 2"><g id="svg2"><g id="layer1"><g id="g7741"><path id="rect3050-0-6-3" class="cls-1" d="M10.5.5h20c5.52,0,10,5.37,10,12v36c0,6.63-4.48,12-10,12h-20C5,60.5.5,55.13.5,48.5v-36C.5,5.87,5,.5,10.5.5Z"/><g id="text3013-7" class="cls-2"><text class="cls-3" transform="translate(11.15 25.09)">8</text></g><path id="path30-21" class="cls-4" d="M20.76,56C19,50.18,14.35,45.8,10.52,41.15c-2-2.36-3.91-5.4-3.07-8.55,1-3.31,5.11-5.16,8.48-4.07A7.86,7.86,0,0,1,20.87,33a10.77,10.77,0,0,1,2.58-3.23c2.89-2.3,7.73-2,10,1,1.68,2.05,1.32,4.93.19,7.14-1.87,3.83-5.28,6.66-7.86,10a24.8,24.8,0,0,0-4.62,8c-.06.14-.31.25-.42.09Z"/></g></g></g></g></svg>