<svg xmlns="http://www.w3.org/2000/svg" viewBox="0 0 40.91 60.91"><defs><style>.cls-1{fill:#fff;stroke:#000;stroke-linejoin:round;stroke-width:0.91px;}.cls-2,.cls-3{isolation:isolate;}.cls-3{font-size:28px;fill:#59813b;font-family:Verdana-Bold, Verdana;font-weight:700;}.cls-4{fill:#5a813b;}</style></defs><title>Ac</title><g id="Layer_2" data-name="Layer 2"><g id="svg2"><g id="layer1"><g id="g7505"><path id="rect3050" class="cls-1" d="M10.46.46h20c5.52,0,10,5.37,10,12v36c0,6.62-4.48,12-10,12h-20c-5.53,0-10-5.38-10-12v-36C.46,5.83,4.93.46,10.46.46Z"/><g id="text2985" class="cls-2"><text class="cls-3" transform="translate(10.09 25.51)">A</text></g><path id="rect3667" class="cls-4" d="M18.43,40.53c-4.29-2.12-10.59.4-9.1,6.09s7.73,4.32,9.9,1c-.9,6.39-2.5,7.39-3.45,8.77H25.9c-1-1.48-2.88-2.38-4-8.86,2.19,3.37,8.77,4.53,10.2-.92s-4.94-8.43-9.17-6c4.05-2.81,5.51-12-2.16-12S14.33,37.93,18.43,40.53Z"/></g></g></g></g></svg>