<svg xmlns="http://www.w3.org/2000/svg" viewBox="0 0 41 61"><defs><style>.cls-1{fill:#fff;stroke:#000;stroke-linejoin:round;}.cls-2,.cls-4{fill:#be3d36;}.cls-3,.cls-4{isolation:isolate;}.cls-4{font-size:28px;font-family:Verdana-Bold, Verdana;font-weight:700;}</style></defs><title>Ah</title><g id="Layer_2" data-name="Layer 2"><g id="svg2"><g id="layer1"><g id="g7597"><path id="rect3050-09" class="cls-1" d="M10.5.5h20c5.52,0,10,5.37,10,12v36c0,6.63-4.48,12-10,12h-20C5,60.5.5,55.13.5,48.5v-36C.5,5.87,5,.5,10.5.5Z"/><path id="path30" class="cls-2" d="M20.15,56c-1.65-5.74-6.11-10-9.78-14.6C8.45,39,6.64,36.05,7.45,33c.93-3.25,4.88-5.06,8.09-4a7.61,7.61,0,0,1,4.72,4.37,10.41,10.41,0,0,1,2.47-3.16,6.92,6.92,0,0,1,9.56,1c1.6,2,1.26,4.83.18,7-1.78,3.76-5,6.54-7.51,9.84a24.57,24.57,0,0,0-4.41,7.89C20.49,56,20.26,56.11,20.15,56Z"/><g id="text2985-9" class="cls-3"><text class="cls-4" transform="translate(10.13 25.55)">A</text></g></g></g></g></g></svg>