<svg xmlns="http://www.w3.org/2000/svg" viewBox="0 0 41 61"><defs><style>.cls-1{fill:#fff;stroke:#000;stroke-linejoin:round;}.cls-2,.cls-3{isolation:isolate;}.cls-3{font-size:28px;font-family:Verdana-Bold, Verdana;font-weight:700;}.cls-3,.cls-4{fill:#2e3cce;}</style></defs><title>d</title><g id="Layer_2" data-name="Layer 2"><g id="svg2"><g id="layer1"><g id="g7591"><path id="rect3050-0-95-5-1" class="cls-1" d="M10.5.5h20c5.52,0,10,5.37,10,12v36c0,6.63-4.48,12-10,12h-20C5,60.5.5,55.13.5,48.5v-36C.5,5.87,5,.5,10.5.5Z"/><g id="text4150-2-2" class="cls-2"><text class="cls-3" transform="translate(13.53 25.55)">?</text></g><path id="path2139-196" class="cls-4" d="M20.84,27.64c-3,5-6.33,9.73-9.74,14.3a114.29,114.29,0,0,1,9.74,14.31,95.63,95.63,0,0,1,9.73-14.31A121.08,121.08,0,0,1,20.84,27.64Z"/></g></g></g></g></svg>