<svg xmlns="http://www.w3.org/2000/svg" viewBox="0 0 41 61"><defs><style>.cls-1{fill:#fff;stroke:#000;stroke-linejoin:round;}.cls-2,.cls-3{isolation:isolate;}.cls-3{font-size:28px;font-family:Verdana-Bold, Verdana;font-weight:700;}.cls-3,.cls-4{fill:#be3d36;}</style></defs><title>Jh</title><g id="Layer_2" data-name="Layer 2"><g id="svg2"><g id="layer1"><g id="g7721"><path id="rect3050-0-85-2" class="cls-1" d="M10.5.5h20c5.52,0,10,5.37,10,12v36c0,6.63-4.48,12-10,12h-20C5,60.5.5,55.13.5,48.5v-36C.5,5.87,5,.5,10.5.5Z"/><g id="text3025-07" class="cls-2"><text class="cls-3" transform="translate(14.22 25.24)">J</text></g><path id="path30-62" class="cls-4" d="M20.41,56c-1.65-5.75-6.12-10-9.78-14.61-1.92-2.31-3.74-5.3-2.93-8.38.94-3.25,4.89-5.07,8.1-4a7.62,7.62,0,0,1,4.72,4.38A10.41,10.41,0,0,1,23,30.27a6.94,6.94,0,0,1,9.57.95c1.6,2,1.26,4.83.18,7-1.78,3.75-5,6.53-7.51,9.84A24.52,24.52,0,0,0,20.81,56c-.06.14-.29.25-.4.09Z"/></g></g></g></g></svg>