<svg xmlns="http://www.w3.org/2000/svg" viewBox="0 0 41 61"><defs><style>.cls-1{fill:#fff;fill-opacity:0.84;stroke:#000;stroke-linejoin:round;}.cls-2,.cls-3{isolation:isolate;}.cls-3{font-size:28px;font-family:Verdana-Bold, Verdana;font-weight:700;}.cls-3,.cls-4{fill:#be3d36;}</style></defs><title>Kh</title><g id="Layer_2" data-name="Layer 2"><g id="svg2"><g id="layer1"><g id="g7709"><path id="rect3050-0-9-6" class="cls-1" d="M10.5.5h20c5.52,0,10,5.37,10,12v36c0,6.63-4.48,12-10,12h-20C5,60.5.5,55.13.5,48.5v-36C.5,5.87,5,.5,10.5.5Z"/><g id="text3033-4" class="cls-2"><text class="cls-3" transform="translate(9.16 25.55)">K</text></g><path id="path30-20" class="cls-4" d="M21.18,56c-1.65-5.75-6.12-10-9.79-14.61-1.91-2.31-3.73-5.3-2.92-8.38.93-3.25,4.88-5.07,8.09-4a7.62,7.62,0,0,1,4.72,4.38,10.29,10.29,0,0,1,2.47-3.16,6.93,6.93,0,0,1,9.56.95c1.61,2,1.26,4.83.18,7-1.78,3.75-5,6.53-7.5,9.84A24.15,24.15,0,0,0,21.58,56C21.52,56.09,21.28,56.2,21.18,56Z"/></g></g></g></g></svg>