<svg xmlns="http://www.w3.org/2000/svg" viewBox="0 0 41 61"><defs><style>.cls-1{fill:#fff;stroke-linejoin:round;}.cls-1,.cls-4{stroke:#000;}.cls-2,.cls-3{isolation:isolate;}.cls-3{font-size:28px;font-family:Verdana-Bold, Verdana;font-weight:700;}.cls-4{stroke-width:0.06px;}</style></defs><title>Ks</title><g id="Layer_2" data-name="Layer 2"><g id="svg2"><g id="layer1"><g id="g7691"><path id="rect3050-0-9-9" class="cls-1" d="M10.5.5h20c5.52,0,10,5.37,10,12v36c0,6.63-4.48,12-10,12h-20C5,60.5.5,55.13.5,48.5v-36C.5,5.87,5,.5,10.5.5Z"/><g id="text3033-0" class="cls-2"><text class="cls-3" transform="translate(9.16 25.55)">K</text></g><path id="path2076-5-77" class="cls-4" d="M12.9,38.22c-9,9.25-.17,16,7,11.54C18.52,54.58,17.78,55,17,56.23h7.7c-1-1.28-2-1.65-3.08-6.44,7.29,4.2,15-3.12,6.89-11.57a36.28,36.28,0,0,1-7.78-9.47,50.08,50.08,0,0,1-7.79,9.47Z"/></g></g></g></g></svg>