<svg xmlns="http://www.w3.org/2000/svg" xmlns:xlink="http://www.w3.org/1999/xlink" width="115px" height="40px" viewBox="0 0 115 40" version="1.1">    
	<style>
	.style0{fill:	none;fill-rule:	evenodd;}
	.style2{fill:	#77C76C;}
	.style3{fill:	#FFFFFF;}
	</style>
	<defs/>
	<g class="style0">
		<g>
			<path class="style2" d="M41.56 11.6 C46.468 11.6 50.4 15.8 50.4 20.9 C50.448 26.1 46.5 30.3 41.6 30.3 C36.652 30.3 32.7 26.1 32.7 20.9 C32.672 15.8 36.6 11.6 41.6 11.6 L41.56 11.6 Z"/>
			
			<path class="style3" d="M99.112 12.7 L99.112 26 C99.112 29 100.8 30 103 30 C103.998 30 104.8 29.8 105.9 29.3 L105.922 31.2 C104.922 31.6 104 31.9 102.7 31.9 C99.688 31.9 97.2 30.1 97.2 26.2 L97.226 12.7 L92.612 12.7 L92.612 10.9 L97.226 10.9 L97.226 5.7 L98.294 4.3 L99.11 4.3 L99.11 10.9 L105.998 10.9 L105.998 12.7 L99.112 12.7 L99.112 12.7 Z M91.506 7.8 C90.63 7.8 89.9 7.1 89.9 6.2 C89.92 5.2 90.6 4.5 91.5 4.5 C92.382 4.5 93.1 5.2 93.1 6.2 C93.092 7.1 92.4 7.8 91.5 7.8 L91.506 7.8 Z M71.522 22 C71.868 27.2 75.4 30.1 79.2 30.1 C82.258 30.1 84.3 28.7 86 26.9 L87.26 28.1 C85.26 30.4 82.9 32 79.1 32 C73.986 32 69.5 27.7 69.5 21.2 L69.524 21.2 C69.524 15.2 73.5 10.4 78.8 10.4 C84.336 10.4 87.8 15.1 87.8 21.2 L87.838 21.3 C87.838 21.6 87.8 21.7 87.8 22 L71.522 22 L71.522 22 Z M78.756 12.2 C74.87 12.2 71.9 15.7 71.5 20.2 L85.796 20.2 C85.528 16.1 83.3 12.2 78.8 12.2 L78.756 12.2 Z M69.822 31.5 L67.436 31.5 L58.386 20.1 L58.374 20.1 L67.05 10.9 L69.552 10.9 L60.972 20 L69.822 31.5 L69.822 31.5 Z M55.012 31.5 L55.012 3.2 L56.072 2 L56.898 2 L56.898 24.4 L56.898 30.3 L55.822 31.5 L55.012 31.5 L55.012 31.5 Z M41.458 32 C35.602 32 31.3 27.1 31.3 21.3 L31.336 21.2 C31.336 15.4 35.6 10.4 41.5 10.4 C47.392 10.4 51.7 15.3 51.7 21.1 L51.658 21.2 C51.658 27 47.4 32 41.5 32 L41.458 32 Z M49.602 21.2 C49.602 16.2 46 12.3 41.5 12.3 C36.766 12.3 33.4 16.3 33.4 21.1 L33.392 21.2 C33.392 26.2 37 30.1 41.5 30.1 C46.228 30.1 49.6 26.1 49.6 21.3 L49.602 21.2 L49.602 21.2 Z M43.444 21.6 C43.328 21.9 43.2 22.2 43.2 22.4 C43.12 22.7 43.1 22.9 43.1 23 C43.056 23.2 43.1 23.3 43.1 23.4 C43.102 23.5 43.1 23.5 43.2 23.6 C43.234 23.6 43.3 23.6 43.3 23.7 C43.43 23.7 43.5 23.7 43.6 23.7 C43.752 23.7 43.8 23.7 43.9 23.7 C43.872 23.7 43.9 23.8 43.9 23.8 C43.912 23.8 43.9 23.8 43.9 23.9 C43.918 23.9 43.9 24 43.9 24 C43.884 24.1 43.9 24.2 43.8 24.3 C43.768 24.5 43.7 24.6 43.7 24.7 C43.624 24.7 43.6 24.8 43.5 24.8 C43.5 24.8 43.5 24.8 43.4 24.8 C43.334 24.8 43.3 24.8 43.2 24.8 C43.11 24.8 43 24.8 42.9 24.8 C42.832 24.8 42.7 24.8 42.6 24.7 C42.436 24.6 42.3 24.6 42.1 24.5 C41.96 24.4 41.8 24.2 41.8 24.1 C41.664 23.9 41.6 23.7 41.6 23.5 C41.576 23.3 41.6 23 41.7 22.6 C41.728 22.3 41.8 21.9 42 21.5 C42.144 21 42.4 20.5 42.6 19.9 L41.268 19.4 C41.086 20 40.9 20.5 40.7 20.9 C40.562 21.3 40.4 21.7 40.2 22 C40.09 22.3 39.9 22.5 39.8 22.7 C39.678 22.9 39.6 23 39.5 23.1 C39.472 23.2 39.4 23.2 39.4 23.2 C39.364 23.3 39.3 23.3 39.3 23.3 C39.286 23.3 39.3 23.3 39.2 23.3 C39.182 23.3 39.1 23.3 39.1 23.3 C39.034 23.3 39 23.3 38.9 23.3 C38.824 23.2 38.7 23.2 38.6 23.2 C38.488 23.1 38.4 23.1 38.3 23 C38.198 23 38.1 23 38.1 22.9 C38.044 22.9 38 22.9 38 22.8 C37.996 22.8 38 22.8 38 22.8 C38.018 22.7 38 22.7 38.1 22.6 C38.13 22.6 38.2 22.5 38.3 22.4 C38.328 22.3 38.4 22.2 38.6 22 C38.714 21.8 38.9 21.5 39 21.2 C39.162 20.9 39.3 20.6 39.5 20.2 C39.638 19.9 39.8 19.4 40 18.9 L39.306 18.7 C39.238 18.6 39.2 18.6 39.2 18.5 C39.184 18.4 39.2 18.2 39.3 18 C39.31 17.9 39.3 17.8 39.4 17.8 C39.408 17.7 39.4 17.6 39.5 17.6 C39.504 17.6 39.5 17.5 39.6 17.5 C39.61 17.5 39.6 17.5 39.7 17.5 L44.984 19.5 C45.026 19.5 45.1 19.5 45.1 19.5 C45.102 19.6 45.1 19.6 45.1 19.6 C45.12 19.7 45.1 19.8 45.1 19.8 C45.078 19.9 45.1 20 45 20.1 C44.954 20.3 44.9 20.4 44.8 20.5 C44.746 20.6 44.7 20.6 44.6 20.6 L43.904 20.3 C43.712 20.8 43.6 21.2 43.4 21.6 L43.444 21.6 Z M47.282 19.9 L48.734 19.7 C48.964 21.7 49 24.4 46.9 26.7 L45.854 25.6 C46.674 24.2 47.5 23.5 47.3 19.9 L47.282 19.9 Z M40.42 14.6 L40.174 13.2 C43.07 12.8 45.2 13.6 46.9 15.6 L45.964 16.6 C44.77 15.1 42.7 14.1 40.4 14.6 L40.42 14.6 Z M35.786 22.4 L34.334 22.6 C34.104 20.6 34 17.9 36.2 15.6 L37.214 16.7 C36.394 18.1 35.6 18.8 35.8 22.4 L35.786 22.4 Z M42.648 27.7 L42.894 29.1 C39.998 29.6 37.9 28.7 36.1 26.7 L37.104 25.7 C38.298 27.2 40.4 28.2 42.6 27.7 L42.648 27.7 Z M20.05 32 C16.094 32 13.5 29.7 11.9 27.1 L11.906 36.7 L10.844 38 L10.006 38 L10.006 12.1 L11.222 10.9 L11.906 10.9 L11.906 15.5 C13.612 12.8 16.1 10.4 20.1 10.4 C24.82 10.4 29.7 14.4 29.7 21.1 L29.668 21.2 C29.668 27.9 24.8 32 20.1 32 L20.05 32 Z M27.612 21.2 C27.612 15.8 24 12.3 19.9 12.3 C15.746 12.3 11.8 15.9 11.8 21.2 L11.79 21.2 C11.79 26.5 15.7 30.1 19.9 30.1 C24.16 30.1 27.6 26.8 27.6 21.3 L27.612 21.2 L27.612 21.2 Z M92.608 12.7 L92.608 30.2 L91.48 31.5 L90.722 31.5 L90.722 10.9 L92.608 10.9 L92.608 12.7 L92.608 12.7 Z"/>
		</g>
	</g>
</svg>