<svg xmlns="http://www.w3.org/2000/svg" viewBox="0 0 41 61.13"><defs><style>.cls-1{fill:#fff;stroke:#000;stroke-linejoin:round;}.cls-2,.cls-3{isolation:isolate;}.cls-3{font-size:24.81px;font-family:Verdana-Bold, Verdana;font-weight:700;}.cls-3,.cls-4{fill:#2e3cce;}</style></defs><title>Qd</title><g id="Layer_2" data-name="Layer 2"><g id="svg2"><g id="layer1"><g id="g7579"><path id="rect3050-0-1-0-3" class="cls-1" d="M10.5.63h20c5.52,0,10,5.38,10,12v36c0,6.63-4.48,12-10,12h-20c-5.52,0-10-5.37-10-12v-36C.5,6,5,.63,10.5.63Z"/><g id="text3029-6-8" class="cls-2"><text class="cls-3" transform="translate(9.66 21.42) scale(1.13 1)">Q</text></g><path id="path2139-29" class="cls-4" d="M21,27.77c-3,5-6.33,9.73-9.73,14.31A114.1,114.1,0,0,1,21,56.38a94.35,94.35,0,0,1,9.74-14.3A121.28,121.28,0,0,1,21,27.77Z"/></g></g></g></g></svg>