<svg xmlns="http://www.w3.org/2000/svg" viewBox="0 0 41 61.01"><defs><style>.cls-1{fill:#fff;stroke:#000;stroke-linejoin:round;}.cls-2,.cls-3{isolation:isolate;}.cls-3{font-size:24.81px;font-family:Verdana-Bold, Verdana;font-weight:700;}.cls-3,.cls-4{fill:#be3d36;}</style></defs><title>Qh</title><g id="Layer_2" data-name="Layer 2"><g id="svg2"><g id="layer1"><g id="g7715"><path id="rect3050-0-1-01" class="cls-1" d="M10.5.51h20c5.52,0,10,5.37,10,12v36c0,6.63-4.48,12-10,12h-20c-5.52,0-10-5.37-10-12v-36C.5,5.88,5,.51,10.5.51Z"/><g id="text3029-4" class="cls-2"><text class="cls-3" transform="translate(9.66 21.42) scale(1.13 1)">Q</text></g><path id="path30-95" class="cls-4" d="M20.92,56.05c-1.65-5.75-6.12-10-9.78-14.61-1.92-2.31-3.74-5.3-2.93-8.38.94-3.25,4.88-5.07,8.1-4A7.63,7.63,0,0,1,21,33.44a10.44,10.44,0,0,1,2.47-3.16,6.93,6.93,0,0,1,9.56.95c1.61,2,1.27,4.83.19,7-1.79,3.75-5,6.53-7.51,9.84A24.34,24.34,0,0,0,21.32,56c-.06.14-.3.25-.4.09Z"/></g></g></g></g></svg>